<!-- License: CC Attribution. Made by epicons: https://epicons.co/ -->
<svg width="24px" height="24px" viewBox="0 0 24 24"  xmlns="http://www.w3.org/2000/svg">
<path fill="url(#paint2_linear)" fill-rule="evenodd" clip-rule="evenodd" d="M4.37879 5.0463C4.48414 3.88737 5.45584 3 6.61955 3H17.3799C18.5436 3 19.5153 3.88737 19.6207 5.04629L20.8479 18.5463C20.9677 19.8639 19.9302 21 18.6072 21H5.39227C4.0692 21 3.03173 19.8639 3.15151 18.5463L4.37879 5.0463ZM11.9996 12C9.51435 12 7.49963 9.98528 7.49963 7.5V6.75C7.49963 6.33579 7.83542 6 8.24963 6C8.66385 6 8.99963 6.33579 8.99963 6.75V7.5C8.99963 9.15685 10.3428 10.5 11.9996 10.5C13.6565 10.5 14.9996 9.15685 14.9996 7.5V6.75C14.9996 6.33579 15.3354 6 15.7496 6C16.1638 6 16.4996 6.33579 16.4996 6.75V7.5C16.4996 9.98528 14.4849 12 11.9996 12Z" fill="#3A52EE"/><defs><linearGradient id="paint0_linear" x1="47.367" x2="78.829" y1="20.386" y2="20.386" gradientUnits="userSpaceOnUse"><stop stop-color="#6948D0"></stop><stop offset="1" stop-color="#DF4D68"></stop></linearGradient><linearGradient id="paint1_linear" x1="33.395" x2="45.428" y1="6.216" y2="6.216" gradientUnits="userSpaceOnUse"><stop stop-color="#4E67DE"></stop><stop offset="1" stop-color="#6948D0"></stop></linearGradient><linearGradient id="paint2_linear" x1="-0.008" x2="31.454" y1="18.25" y2="18.25" gradientUnits="userSpaceOnUse"><stop stop-color="#18B0F4"></stop><stop offset="1" stop-color="#4E67DE"></stop></linearGradient><linearGradient id="paint3_linear" x1="33.39" x2="45.427" y1="24.465" y2="24.465" gradientUnits="userSpaceOnUse"><stop stop-color="#4E67DE"></stop><stop offset="1" stop-color="#6948D0"></stop></linearGradient></defs></svg>

